<svg width="166" height="204" viewBox="0 0 166 204" fill="none" xmlns="http://www.w3.org/2000/svg">
<path d="M6.3 11.16H74.34L82.08 1.26001C82.08 1.26001 82.92 1.92 84.6 3.24C86.28 4.56001 88.26 6.18001 90.54 8.1C92.94 9.9 95.04 11.64 96.84 13.32C96.36 15.24 94.8 16.2 92.16 16.2H7.74L6.3 11.16ZM1.44 46.62H76.86L84.96 36C84.96 36 85.8 36.72 87.48 38.16C89.16 39.48 91.14 41.16 93.42 43.2C95.82 45.12 97.92 46.98 99.72 48.78C99.24 50.7 97.68 51.66 95.04 51.66H2.88L1.44 46.62ZM106.02 8.28L123.66 10.26C123.54 11.46 123 12.48 122.04 13.32C121.08 14.04 119.52 14.58 117.36 14.94V72C117.36 72.48 116.88 73.02 115.92 73.62C114.96 74.22 113.76 74.76 112.32 75.24C111 75.6 109.62 75.78 108.18 75.78H106.02V8.28ZM60.12 11.16H71.46V93.96C71.46 94.44 70.56 95.16 68.76 96.12C67.08 96.96 64.74 97.38 61.74 97.38H60.12V11.16ZM145.08 0L162.72 1.80001C162.6 3.12001 162.06 4.2 161.1 5.04C160.14 5.76 158.58 6.3 156.42 6.66V82.98C156.42 86.1 156.06 88.86 155.34 91.26C154.62 93.54 153.06 95.4 150.66 96.84C148.38 98.16 144.72 99.12 139.68 99.72C139.44 97.8 139.08 96.18 138.6 94.86C138.12 93.42 137.4 92.22 136.44 91.26C135.24 90.3 133.62 89.52 131.58 88.92C129.66 88.2 127.08 87.6 123.84 87.12V84.24C123.84 84.24 124.56 84.3 126 84.42C127.56 84.54 129.42 84.66 131.58 84.78C133.74 84.9 135.72 85.02 137.52 85.14C139.44 85.26 140.76 85.32 141.48 85.32C142.92 85.32 143.88 85.08 144.36 84.6C144.84 84.12 145.08 83.28 145.08 82.08V0ZM77.22 91.62L95.76 93.6C95.64 94.8 95.04 95.82 93.96 96.66C93 97.5 91.38 98.1 89.1 98.46V156.6H77.22V91.62ZM18.72 115.56H125.46L134.1 104.76C134.1 104.76 134.64 105.18 135.72 106.02C136.8 106.86 138.12 107.94 139.68 109.26C141.36 110.58 143.1 112.02 144.9 113.58C146.82 115.14 148.56 116.64 150.12 118.08C149.64 119.88 148.02 120.78 145.26 120.78H20.16L18.72 115.56ZM1.26 154.26H140.04L149.04 142.92C149.04 142.92 149.58 143.34 150.66 144.18C151.74 145.02 153.12 146.16 154.8 147.6C156.6 148.92 158.46 150.36 160.38 151.92C162.3 153.48 164.04 154.98 165.6 156.42C165.12 158.34 163.44 159.3 160.56 159.3H2.88L1.26 154.26ZM26.64 11.16H37.8V37.26C37.8 42.3 37.44 47.64 36.72 53.28C36 58.92 34.44 64.56 32.04 70.2C29.64 75.72 26.04 81.06 21.24 86.22C16.56 91.26 10.2 95.82 2.16 99.9L0 97.56C7.92 91.56 13.74 85.2 17.46 78.48C21.18 71.76 23.64 64.92 24.84 57.96C26.04 50.88 26.64 44.04 26.64 37.44V11.16Z" fill="#D4A574"/>
<path d="M31.9369 203.58L40.4569 181.02H42.7369L34.2169 203.58H31.9369Z" fill="#404040"/>
<path d="M47.4075 182.7V189.036H45.4875V182.7H47.4075Z" fill="#404040"/>
<path d="M50.6512 200.94V183.42H52.8112V193.188H55.3553L59.1953 187.74H61.6673L57.2272 194.028L61.7393 200.94H59.2192L55.3792 195.06H52.8112V200.94H50.6512Z" fill="#404040"/>
<path d="M69.3619 201.18C68.3059 201.18 67.3779 200.932 66.5779 200.436C65.7939 199.94 65.1779 199.204 64.7299 198.228C64.2979 197.236 64.0819 196.004 64.0819 194.532C64.0819 192.324 64.5619 190.66 65.5219 189.54C66.4979 188.404 67.7859 187.836 69.3859 187.836C70.3779 187.836 71.1859 188.02 71.8099 188.388C72.4499 188.756 72.9699 189.204 73.3699 189.732H73.4659L73.8019 188.076H75.4819V198.108C75.4819 198.604 75.5779 198.956 75.7699 199.164C75.9619 199.356 76.1939 199.452 76.4659 199.452C76.5939 199.452 76.7299 199.436 76.8739 199.404C77.0179 199.372 77.1219 199.348 77.1859 199.332V200.868C77.1059 200.916 76.9939 200.964 76.8499 201.012C76.7059 201.06 76.5459 201.1 76.3699 201.132C76.1939 201.164 76.0179 201.18 75.8419 201.18C75.2339 201.18 74.7299 201.036 74.3299 200.748C73.9299 200.46 73.6419 199.948 73.4659 199.212H73.3699C72.9859 199.756 72.4739 200.22 71.8339 200.604C71.1939 200.988 70.3699 201.18 69.3619 201.18ZM69.6979 199.428C70.6099 199.428 71.3299 199.268 71.8579 198.948C72.4019 198.612 72.7939 198.108 73.0339 197.436C73.2739 196.764 73.3939 195.932 73.3939 194.94V194.556C73.3939 192.956 73.1299 191.732 72.6019 190.884C72.0739 190.02 71.0979 189.588 69.6739 189.588C68.5379 189.588 67.6819 190.044 67.1059 190.956C66.5459 191.852 66.2659 193.06 66.2659 194.58C66.2659 196.116 66.5459 197.308 67.1059 198.156C67.6819 199.004 68.5459 199.428 69.6979 199.428Z" fill="#404040"/>
<path d="M81.3915 191.412L79.2555 188.076H83.5275L81.3915 191.412ZM79.2555 200.94L81.3915 197.604L83.5275 200.94H79.2555Z" fill="#404040"/>
<path d="M93.9019 200.94C92.7659 200.94 91.8779 200.636 91.2379 200.028C90.6139 199.42 90.3019 198.564 90.3019 197.46V189.708H86.5819V187.74H90.3019V184.02H92.4619V187.74H97.7419V189.708H92.4619V197.46C92.4619 198.468 92.9419 198.972 93.9019 198.972H97.5019V200.94H93.9019Z" fill="#404040"/>
<path d="M106.253 201.18C105.197 201.18 104.268 200.932 103.468 200.436C102.684 199.94 102.068 199.204 101.62 198.228C101.188 197.236 100.973 196.004 100.973 194.532C100.973 192.324 101.452 190.66 102.412 189.54C103.388 188.404 104.676 187.836 106.276 187.836C107.268 187.836 108.077 188.02 108.701 188.388C109.341 188.756 109.86 189.204 110.26 189.732H110.356L110.692 188.076H112.372V198.108C112.372 198.604 112.468 198.956 112.66 199.164C112.852 199.356 113.084 199.452 113.356 199.452C113.484 199.452 113.621 199.436 113.765 199.404C113.909 199.372 114.012 199.348 114.076 199.332V200.868C113.997 200.916 113.885 200.964 113.741 201.012C113.597 201.06 113.436 201.1 113.26 201.132C113.084 201.164 112.908 201.18 112.732 201.18C112.124 201.18 111.62 201.036 111.22 200.748C110.82 200.46 110.532 199.948 110.356 199.212H110.26C109.876 199.756 109.365 200.22 108.725 200.604C108.085 200.988 107.261 201.18 106.253 201.18ZM106.589 199.428C107.501 199.428 108.22 199.268 108.748 198.948C109.292 198.612 109.684 198.108 109.924 197.436C110.164 196.764 110.285 195.932 110.285 194.94V194.556C110.285 192.956 110.021 191.732 109.493 190.884C108.964 190.02 107.988 189.588 106.564 189.588C105.428 189.588 104.572 190.044 103.996 190.956C103.436 191.852 103.157 193.06 103.157 194.58C103.157 196.116 103.436 197.308 103.996 198.156C104.572 199.004 105.437 199.428 106.589 199.428Z" fill="#404040"/>
<path d="M118.282 191.412L116.146 188.076H120.418L118.282 191.412ZM116.146 200.94L118.282 197.604L120.418 200.94H116.146Z" fill="#404040"/>
<path d="M123.952 203.58L132.473 181.02H134.753L126.232 203.58H123.952Z" fill="#404040"/>
</svg>
