<svg width="300" height="300" viewBox="0 0 300 300" fill="none" xmlns="http://www.w3.org/2000/svg">
<path d="M150 300C232.843 300 300 232.843 300 150C300 67.1573 232.843 0 150 0C67.1573 0 0 67.1573 0 150C0 232.843 67.1573 300 150 300Z" fill="#0D0D0D"/>
<path d="M150 296.875C231.117 296.875 296.875 231.117 296.875 150C296.875 68.8832 231.117 3.125 150 3.125C68.8832 3.125 3.125 68.8832 3.125 150C3.125 231.117 68.8832 296.875 150 296.875Z" stroke="#2D2D2D" stroke-width="2"/>
<path d="M150 300C232.843 300 300 232.843 300 150C300 67.1573 232.843 0 150 0C67.1573 0 0 67.1573 0 150C0 232.843 67.1573 300 150 300Z" fill="#0D0D0D"/>
<path d="M150 296.875C231.117 296.875 296.875 231.117 296.875 150C296.875 68.8832 231.117 3.125 150 3.125C68.8832 3.125 3.125 68.8832 3.125 150C3.125 231.117 68.8832 296.875 150 296.875Z" stroke="#2D2D2D" stroke-width="2"/>
<path d="M69.5054 53.6764H139.764L147.757 43.3183C147.757 43.3183 148.624 44.0088 150.359 45.3899C152.093 46.771 154.138 48.466 156.492 50.4748C158.971 52.3581 161.139 54.1786 162.998 55.9363C162.502 57.9452 160.891 58.9496 158.165 58.9496H70.9924L69.5054 53.6764ZM64.487 90.7772H142.366L150.73 79.6658C150.73 79.6658 151.598 80.4191 153.333 81.9257C155.067 83.3068 157.112 85.0645 159.466 87.1989C161.945 89.2078 164.113 91.1539 165.972 93.0371C165.476 95.046 163.865 96.0504 161.139 96.0504H65.9739L64.487 90.7772ZM172.477 50.6631L190.692 52.7348C190.568 53.9903 190.011 55.0575 189.02 55.9363C188.028 56.6897 186.417 57.2546 184.187 57.6313V117.332C184.187 117.834 183.691 118.399 182.7 119.027C181.709 119.654 180.47 120.219 178.983 120.721C177.62 121.098 176.195 121.286 174.708 121.286H172.477V50.6631ZM125.08 53.6764H136.79V140.308C136.79 140.81 135.861 141.563 134.002 142.568C132.267 143.447 129.851 143.886 126.753 143.886H125.08V53.6764ZM212.811 42L231.026 43.8833C230.902 45.2644 230.345 46.3943 229.353 47.2732C228.362 48.0265 226.751 48.5915 224.521 48.9682V128.82C224.521 132.084 224.149 134.972 223.405 137.483C222.662 139.868 221.051 141.814 218.573 143.321C216.218 144.702 212.439 145.706 207.235 146.334C206.987 144.325 206.615 142.63 206.12 141.249C205.624 139.743 204.88 138.487 203.889 137.483C202.65 136.478 200.977 135.662 198.871 135.034C196.888 134.281 194.224 133.653 190.878 133.151V130.138C190.878 130.138 191.622 130.201 193.109 130.326C194.72 130.452 196.64 130.577 198.871 130.703C201.101 130.828 203.146 130.954 205.004 131.08C206.987 131.205 208.35 131.268 209.093 131.268C210.58 131.268 211.572 131.017 212.067 130.515C212.563 130.012 212.811 129.134 212.811 127.878V42ZM142.738 137.859L161.883 139.931C161.759 141.187 161.139 142.254 160.024 143.133C159.033 144.011 157.36 144.639 155.005 145.016V205.846H142.738V137.859ZM82.3304 162.907H192.551L201.473 151.607C201.473 151.607 202.03 152.047 203.146 152.926C204.261 153.805 205.624 154.935 207.235 156.316C208.97 157.697 210.766 159.203 212.625 160.836C214.608 162.468 216.404 164.037 218.015 165.544C217.52 167.427 215.847 168.369 212.997 168.369H83.8174L82.3304 162.907ZM64.3011 203.398H207.607L216.9 191.533C216.9 191.533 217.458 191.973 218.573 192.851C219.688 193.73 221.113 194.923 222.848 196.43C224.707 197.811 226.627 199.317 228.61 200.95C230.592 202.582 232.389 204.151 234 205.658C233.504 207.667 231.77 208.671 228.796 208.671H65.9739L64.3011 203.398ZM90.5087 53.6764H102.033V80.9841C102.033 86.2573 101.661 91.8444 100.917 97.7454C100.174 103.646 98.563 109.547 96.0848 115.448C93.6065 121.224 89.8891 126.811 84.9326 132.21C80.1 137.483 73.5326 142.254 65.2304 146.523L63 144.074C71.1783 137.797 77.188 131.142 81.0293 124.111C84.8707 117.08 87.4109 109.924 88.65 102.642C89.8891 95.2343 90.5087 88.0778 90.5087 81.1724V53.6764Z" fill="#D4A574"/>
<path d="M95.9783 255L104.776 231.396H107.13L98.3326 255H95.9783Z" fill="#404040"/>
<path d="M111.953 233.154V239.783H109.971V233.154H111.953Z" fill="#404040"/>
<path d="M115.303 252.238V233.907H117.533V244.127H120.16L124.126 238.427H126.678L122.093 245.006L126.752 252.238H124.15L120.185 246.086H117.533V252.238H115.303Z" fill="#404040"/>
<path d="M134.624 252.489C133.533 252.489 132.575 252.229 131.749 251.711C130.939 251.192 130.303 250.422 129.841 249.4C129.395 248.362 129.172 247.073 129.172 245.533C129.172 243.223 129.667 241.482 130.658 240.31C131.666 239.122 132.996 238.527 134.648 238.527C135.673 238.527 136.507 238.72 137.151 239.105C137.812 239.49 138.349 239.959 138.762 240.511H138.861L139.208 238.779H140.943V249.275C140.943 249.794 141.042 250.162 141.241 250.38C141.439 250.581 141.678 250.681 141.959 250.681C142.091 250.681 142.232 250.664 142.381 250.631C142.529 250.597 142.637 250.572 142.703 250.555V252.163C142.62 252.213 142.505 252.263 142.356 252.313C142.207 252.363 142.042 252.405 141.86 252.439C141.678 252.472 141.497 252.489 141.315 252.489C140.687 252.489 140.167 252.338 139.754 252.037C139.341 251.736 139.043 251.2 138.861 250.43H138.762C138.366 250.999 137.837 251.485 137.176 251.886C136.515 252.288 135.665 252.489 134.624 252.489ZM134.971 250.656C135.912 250.656 136.656 250.488 137.201 250.154C137.763 249.802 138.168 249.275 138.415 248.572C138.663 247.869 138.787 246.998 138.787 245.96V245.558C138.787 243.884 138.515 242.604 137.969 241.717C137.424 240.813 136.416 240.361 134.946 240.361C133.773 240.361 132.889 240.838 132.294 241.792C131.716 242.729 131.427 243.993 131.427 245.584C131.427 247.191 131.716 248.438 132.294 249.325C132.889 250.212 133.781 250.656 134.971 250.656Z" fill="#404040"/>
<path d="M147.046 242.269L144.84 238.779H149.251L147.046 242.269ZM144.84 252.238L147.046 248.747L149.251 252.238H144.84Z" fill="#404040"/>
<path d="M159.964 252.238C158.791 252.238 157.874 251.92 157.213 251.284C156.569 250.648 156.246 249.752 156.246 248.597V240.486H152.405V238.427H156.246V234.535H158.477V238.427H163.929V240.486H158.477V248.597C158.477 249.651 158.973 250.179 159.964 250.179H163.681V252.238H159.964Z" fill="#404040"/>
<path d="M172.717 252.489C171.627 252.489 170.669 252.229 169.842 251.711C169.033 251.192 168.397 250.422 167.934 249.4C167.488 248.362 167.265 247.073 167.265 245.533C167.265 243.223 167.761 241.482 168.752 240.31C169.76 239.122 171.09 238.527 172.742 238.527C173.766 238.527 174.601 238.72 175.245 239.105C175.906 239.49 176.443 239.959 176.856 240.511H176.955L177.302 238.779H179.037V249.275C179.037 249.794 179.136 250.162 179.334 250.38C179.532 250.581 179.772 250.681 180.053 250.681C180.185 250.681 180.326 250.664 180.474 250.631C180.623 250.597 180.73 250.572 180.796 250.555V252.163C180.714 252.213 180.598 252.263 180.449 252.313C180.301 252.363 180.136 252.405 179.954 252.439C179.772 252.472 179.59 252.489 179.409 252.489C178.781 252.489 178.26 252.338 177.847 252.037C177.434 251.736 177.137 251.2 176.955 250.43H176.856C176.459 250.999 175.931 251.485 175.27 251.886C174.609 252.288 173.758 252.489 172.717 252.489ZM173.064 250.656C174.006 250.656 174.749 250.488 175.295 250.154C175.856 249.802 176.261 249.275 176.509 248.572C176.757 247.869 176.881 246.998 176.881 245.96V245.558C176.881 243.884 176.608 242.604 176.063 241.717C175.518 240.813 174.51 240.361 173.039 240.361C171.866 240.361 170.982 240.838 170.388 241.792C169.809 242.729 169.52 243.993 169.52 245.584C169.52 247.191 169.809 248.438 170.388 249.325C170.982 250.212 171.875 250.656 173.064 250.656Z" fill="#404040"/>
<path d="M185.139 242.269L182.933 238.779H187.345L185.139 242.269ZM182.933 252.238L185.139 248.747L187.345 252.238H182.933Z" fill="#404040"/>
<path d="M190.994 255L199.792 231.396H202.147L193.349 255H190.994Z" fill="#404040"/>
</svg>
