<svg width="400" height="120" viewBox="0 0 400 120" fill="none" xmlns="http://www.w3.org/2000/svg">
<g clip-path="url(#clip0_16_53)">
<path d="M392 0H8C3.58172 0 0 3.58172 0 8V112C0 116.418 3.58172 120 8 120H392C396.418 120 400 116.418 400 112V8C400 3.58172 396.418 0 392 0Z" fill="#0D0D0D"/>
<path d="M120 30V90" stroke="#2D2D2D"/>
<path d="M153.312 73V46.72H156.552V57.988H160.44L166.272 46.72H169.8L163.284 59.356L170.16 73H166.452L160.332 60.832H156.552V73H153.312ZM173.386 73L180.226 46.72H184.582L191.386 73H188.11L186.382 66.016H178.426L176.698 73H173.386ZM179.074 63.28H185.698L183.682 55.18C183.298 53.644 182.998 52.36 182.782 51.328C182.566 50.296 182.434 49.624 182.386 49.312C182.338 49.624 182.206 50.296 181.99 51.328C181.774 52.36 181.474 53.632 181.09 55.144L179.074 63.28ZM202.352 73V49.636H195.152V46.684H212.792V49.636H205.592V73H202.352ZM216.558 73L223.398 46.72H227.754L234.558 73H231.282L229.554 66.016H221.598L219.87 73H216.558ZM222.246 63.28H228.87L226.854 55.18C226.47 53.644 226.17 52.36 225.954 51.328C225.738 50.296 225.606 49.624 225.558 49.312C225.51 49.624 225.378 50.296 225.162 51.328C224.946 52.36 224.646 53.632 224.262 55.144L222.246 63.28Z" fill="#FAF8F5"/>
<path d="M152.772 94.11C152.134 94.11 151.632 93.9487 151.265 93.626C150.898 93.296 150.715 92.8523 150.715 92.295C150.715 91.7303 150.898 91.2867 151.265 90.964C151.632 90.6413 152.127 90.48 152.75 90.48H154.62V89.875C154.62 89.501 154.506 89.215 154.279 89.017C154.059 88.8117 153.744 88.709 153.333 88.709C152.974 88.709 152.673 88.786 152.431 88.94C152.189 89.0867 152.05 89.2883 152.013 89.545H151.023C151.089 89.0243 151.335 88.61 151.76 88.302C152.185 87.994 152.717 87.84 153.355 87.84C154.052 87.84 154.602 88.0197 155.005 88.379C155.408 88.7383 155.61 89.226 155.61 89.842V94H154.642V92.845H154.477L154.642 92.68C154.642 93.12 154.47 93.4683 154.125 93.725C153.788 93.9817 153.337 94.11 152.772 94.11ZM153.014 93.329C153.483 93.329 153.868 93.2117 154.169 92.977C154.47 92.7423 154.62 92.4417 154.62 92.075V91.217H152.772C152.442 91.217 152.182 91.3087 151.991 91.492C151.8 91.6753 151.705 91.9247 151.705 92.24C151.705 92.5773 151.819 92.845 152.046 93.043C152.281 93.2337 152.603 93.329 153.014 93.329ZM158.367 95.98V95.078H160.292C160.6 95.078 160.823 95.0083 160.963 94.869C161.109 94.7297 161.183 94.5133 161.183 94.22V93.45L161.205 92.35H161.007L161.194 92.185C161.194 92.625 161.047 92.9733 160.754 93.23C160.46 93.4867 160.068 93.615 159.577 93.615C158.953 93.615 158.462 93.4133 158.103 93.01C157.743 92.5993 157.564 92.0493 157.564 91.36V90.084C157.564 89.3947 157.743 88.8483 158.103 88.445C158.462 88.0417 158.953 87.84 159.577 87.84C160.068 87.84 160.46 87.9683 160.754 88.225C161.047 88.4817 161.194 88.83 161.194 89.27L161.007 89.105H161.194V87.95H162.173V94.22C162.173 94.7627 162.004 95.1917 161.667 95.507C161.337 95.8223 160.875 95.98 160.281 95.98H158.367ZM159.874 92.757C160.284 92.757 160.607 92.6287 160.842 92.372C161.076 92.1153 161.194 91.7597 161.194 91.305V90.15C161.194 89.6953 161.076 89.3397 160.842 89.083C160.607 88.8263 160.284 88.698 159.874 88.698C159.456 88.698 159.129 88.8227 158.895 89.072C158.667 89.3213 158.554 89.6807 158.554 90.15V91.305C158.554 91.7743 158.667 92.1337 158.895 92.383C159.129 92.6323 159.456 92.757 159.874 92.757ZM166.491 94.11C166.015 94.11 165.597 94.0147 165.237 93.824C164.885 93.6333 164.61 93.3657 164.412 93.021C164.222 92.669 164.126 92.262 164.126 91.8V90.15C164.126 89.6807 164.222 89.2737 164.412 88.929C164.61 88.5843 164.885 88.3167 165.237 88.126C165.597 87.9353 166.015 87.84 166.491 87.84C166.968 87.84 167.382 87.9353 167.734 88.126C168.094 88.3167 168.369 88.5843 168.559 88.929C168.757 89.2737 168.856 89.6807 168.856 90.15V91.217H165.094V91.8C165.094 92.2767 165.215 92.6433 165.457 92.9C165.699 93.1493 166.044 93.274 166.491 93.274C166.873 93.274 167.181 93.208 167.415 93.076C167.65 92.9367 167.793 92.7313 167.844 92.46H168.834C168.768 92.966 168.519 93.3693 168.086 93.67C167.661 93.9633 167.129 94.11 166.491 94.11ZM167.888 90.557V90.15C167.888 89.6733 167.767 89.3067 167.525 89.05C167.291 88.7933 166.946 88.665 166.491 88.665C166.044 88.665 165.699 88.7933 165.457 89.05C165.215 89.3067 165.094 89.6733 165.094 90.15V90.469H167.965L167.888 90.557ZM170.799 94V87.95H171.789V89.105H171.998L171.789 89.336C171.789 88.8593 171.932 88.4927 172.218 88.236C172.504 87.972 172.9 87.84 173.406 87.84C174.015 87.84 174.499 88.027 174.858 88.401C175.217 88.775 175.397 89.2847 175.397 89.93V94H174.407V90.04C174.407 89.6073 174.29 89.2773 174.055 89.05C173.828 88.8153 173.516 88.698 173.12 88.698C172.709 88.698 172.383 88.8227 172.141 89.072C171.906 89.3213 171.789 89.6807 171.789 90.15V94H170.799ZM180.343 94C179.822 94 179.415 93.8607 179.122 93.582C178.836 93.3033 178.693 92.911 178.693 92.405V88.852H176.988V87.95H178.693V86.245H179.683V87.95H182.103V88.852H179.683V92.405C179.683 92.867 179.903 93.098 180.343 93.098H181.993V94H180.343ZM192.874 94.088C192.39 94.088 191.972 93.9963 191.62 93.813C191.268 93.6297 190.993 93.3657 190.795 93.021C190.605 92.669 190.509 92.2547 190.509 91.778V90.172C190.509 89.688 190.605 89.2737 190.795 88.929C190.993 88.5843 191.268 88.3203 191.62 88.137C191.972 87.9537 192.39 87.862 192.874 87.862C193.358 87.862 193.776 87.9537 194.128 88.137C194.48 88.3203 194.752 88.5843 194.942 88.929C195.14 89.2737 195.239 89.6843 195.239 90.161V91.778C195.239 92.2547 195.14 92.669 194.942 93.021C194.752 93.3657 194.48 93.6297 194.128 93.813C193.776 93.9963 193.358 94.088 192.874 94.088ZM192.874 93.208C193.307 93.208 193.644 93.087 193.886 92.845C194.128 92.603 194.249 92.2473 194.249 91.778V90.172C194.249 89.7027 194.128 89.347 193.886 89.105C193.644 88.863 193.307 88.742 192.874 88.742C192.449 88.742 192.112 88.863 191.862 89.105C191.62 89.347 191.499 89.7027 191.499 90.172V91.778C191.499 92.2473 191.62 92.603 191.862 92.845C192.112 93.087 192.449 93.208 192.874 93.208ZM197.391 94V87.95H198.359V89.105H198.59L198.271 89.82C198.271 89.1673 198.41 88.676 198.689 88.346C198.975 88.0087 199.397 87.84 199.954 87.84C200.592 87.84 201.098 88.0417 201.472 88.445C201.853 88.841 202.044 89.38 202.044 90.062V90.425H201.054V90.15C201.054 89.6733 200.937 89.3103 200.702 89.061C200.475 88.8043 200.148 88.676 199.723 88.676C199.305 88.676 198.975 88.8043 198.733 89.061C198.498 89.3177 198.381 89.6807 198.381 90.15V94H197.391ZM206.11 94.11C205.626 94.11 205.2 94.0183 204.834 93.835C204.474 93.6517 204.196 93.3877 203.998 93.043C203.8 92.691 203.701 92.2767 203.701 91.8V90.15C203.701 89.666 203.8 89.2517 203.998 88.907C204.196 88.5623 204.474 88.2983 204.834 88.115C205.2 87.9317 205.626 87.84 206.11 87.84C206.806 87.84 207.367 88.027 207.793 88.401C208.218 88.775 208.442 89.2847 208.464 89.93H207.474C207.452 89.5413 207.32 89.2443 207.078 89.039C206.843 88.8263 206.52 88.72 206.11 88.72C205.677 88.72 205.332 88.8447 205.076 89.094C204.819 89.336 204.691 89.6843 204.691 90.139V91.8C204.691 92.2547 204.819 92.6067 205.076 92.856C205.332 93.1053 205.677 93.23 206.11 93.23C206.52 93.23 206.843 93.1237 207.078 92.911C207.32 92.6983 207.452 92.4013 207.474 92.02H208.464C208.442 92.6653 208.218 93.175 207.793 93.549C207.367 93.923 206.806 94.11 206.11 94.11ZM210.373 94V85.97H211.363V87.95V89.105H211.572L211.363 89.336C211.363 88.8593 211.506 88.4927 211.792 88.236C212.078 87.972 212.474 87.84 212.98 87.84C213.589 87.84 214.073 88.027 214.432 88.401C214.792 88.775 214.971 89.2847 214.971 89.93V94H213.981V90.04C213.981 89.6073 213.864 89.2737 213.629 89.039C213.402 88.797 213.09 88.676 212.694 88.676C212.284 88.676 211.957 88.8043 211.715 89.061C211.481 89.3177 211.363 89.6807 211.363 90.15V94H210.373ZM219.257 94.11C218.78 94.11 218.362 94.0147 218.003 93.824C217.651 93.6333 217.376 93.3657 217.178 93.021C216.987 92.669 216.892 92.262 216.892 91.8V90.15C216.892 89.6807 216.987 89.2737 217.178 88.929C217.376 88.5843 217.651 88.3167 218.003 88.126C218.362 87.9353 218.78 87.84 219.257 87.84C219.734 87.84 220.148 87.9353 220.5 88.126C220.859 88.3167 221.134 88.5843 221.325 88.929C221.523 89.2737 221.622 89.6807 221.622 90.15V91.217H217.86V91.8C217.86 92.2767 217.981 92.6433 218.223 92.9C218.465 93.1493 218.81 93.274 219.257 93.274C219.638 93.274 219.946 93.208 220.181 93.076C220.416 92.9367 220.559 92.7313 220.61 92.46H221.6C221.534 92.966 221.285 93.3693 220.852 93.67C220.427 93.9633 219.895 94.11 219.257 94.11ZM220.654 90.557V90.15C220.654 89.6733 220.533 89.3067 220.291 89.05C220.056 88.7933 219.712 88.665 219.257 88.665C218.81 88.665 218.465 88.7933 218.223 89.05C217.981 89.3067 217.86 89.6733 217.86 90.15V90.469H220.731L220.654 90.557ZM225.666 94.088C225.255 94.088 224.896 94.0257 224.588 93.901C224.287 93.769 224.045 93.5857 223.862 93.351C223.686 93.1163 223.579 92.8377 223.543 92.515H224.533C224.577 92.7277 224.694 92.8963 224.885 93.021C225.083 93.1457 225.343 93.208 225.666 93.208H226.128C226.516 93.208 226.806 93.131 226.997 92.977C227.187 92.8157 227.283 92.603 227.283 92.339C227.283 92.0823 227.195 91.8807 227.019 91.734C226.85 91.58 226.597 91.4773 226.26 91.426L225.446 91.294C224.852 91.1913 224.408 91.008 224.115 90.744C223.829 90.4727 223.686 90.0803 223.686 89.567C223.686 89.0243 223.858 88.6063 224.203 88.313C224.547 88.0123 225.064 87.862 225.754 87.862H226.172C226.751 87.862 227.217 87.9977 227.569 88.269C227.921 88.5403 228.133 88.907 228.207 89.369H227.217C227.173 89.1783 227.063 89.028 226.887 88.918C226.711 88.8007 226.472 88.742 226.172 88.742H225.754C225.38 88.742 225.105 88.8117 224.929 88.951C224.76 89.0903 224.676 89.2993 224.676 89.578C224.676 89.8273 224.749 90.0107 224.896 90.128C225.042 90.2453 225.273 90.3297 225.589 90.381L226.403 90.513C227.055 90.6157 227.528 90.8063 227.822 91.085C228.122 91.3637 228.273 91.767 228.273 92.295C228.273 92.8523 228.093 93.2923 227.734 93.615C227.382 93.9303 226.846 94.088 226.128 94.088H225.666ZM233.108 94C232.588 94 232.181 93.8607 231.887 93.582C231.601 93.3033 231.458 92.911 231.458 92.405V88.852H229.753V87.95H231.458V86.245H232.448V87.95H234.868V88.852H232.448V92.405C232.448 92.867 232.668 93.098 233.108 93.098H234.758V94H233.108ZM236.965 94V87.95H237.933V89.105H238.164L237.845 89.82C237.845 89.1673 237.984 88.676 238.263 88.346C238.549 88.0087 238.971 87.84 239.528 87.84C240.166 87.84 240.672 88.0417 241.046 88.445C241.427 88.841 241.618 89.38 241.618 90.062V90.425H240.628V90.15C240.628 89.6733 240.511 89.3103 240.276 89.061C240.049 88.8043 239.722 88.676 239.297 88.676C238.879 88.676 238.549 88.8043 238.307 89.061C238.072 89.3177 237.955 89.6807 237.955 90.15V94H236.965ZM245.112 94.11C244.474 94.11 243.972 93.9487 243.605 93.626C243.238 93.296 243.055 92.8523 243.055 92.295C243.055 91.7303 243.238 91.2867 243.605 90.964C243.972 90.6413 244.467 90.48 245.09 90.48H246.96V89.875C246.96 89.501 246.846 89.215 246.619 89.017C246.399 88.8117 246.084 88.709 245.673 88.709C245.314 88.709 245.013 88.786 244.771 88.94C244.529 89.0867 244.39 89.2883 244.353 89.545H243.363C243.429 89.0243 243.675 88.61 244.1 88.302C244.525 87.994 245.057 87.84 245.695 87.84C246.392 87.84 246.942 88.0197 247.345 88.379C247.748 88.7383 247.95 89.226 247.95 89.842V94H246.982V92.845H246.817L246.982 92.68C246.982 93.12 246.81 93.4683 246.465 93.725C246.128 93.9817 245.677 94.11 245.112 94.11ZM245.354 93.329C245.823 93.329 246.208 93.2117 246.509 92.977C246.81 92.7423 246.96 92.4417 246.96 92.075V91.217H245.112C244.782 91.217 244.522 91.3087 244.331 91.492C244.14 91.6753 244.045 91.9247 244.045 92.24C244.045 92.5773 244.159 92.845 244.386 93.043C244.621 93.2337 244.943 93.329 245.354 93.329ZM252.896 94C252.375 94 251.968 93.8607 251.675 93.582C251.389 93.3033 251.246 92.911 251.246 92.405V88.852H249.541V87.95H251.246V86.245H252.236V87.95H254.656V88.852H252.236V92.405C252.236 92.867 252.456 93.098 252.896 93.098H254.546V94H252.896ZM256.466 94V93.098H258.611V88.852H256.741V87.95H259.601V93.098H261.636V94H256.466ZM258.996 86.861C258.754 86.861 258.564 86.7987 258.424 86.674C258.285 86.5493 258.215 86.3807 258.215 86.168C258.215 85.948 258.285 85.7757 258.424 85.651C258.564 85.519 258.754 85.453 258.996 85.453C259.238 85.453 259.429 85.519 259.568 85.651C259.708 85.7757 259.777 85.948 259.777 86.168C259.777 86.3807 259.708 86.5493 259.568 86.674C259.429 86.7987 259.238 86.861 258.996 86.861ZM265.427 94.088C264.943 94.088 264.525 93.9963 264.173 93.813C263.821 93.6297 263.546 93.3657 263.348 93.021C263.157 92.669 263.062 92.2547 263.062 91.778V90.172C263.062 89.688 263.157 89.2737 263.348 88.929C263.546 88.5843 263.821 88.3203 264.173 88.137C264.525 87.9537 264.943 87.862 265.427 87.862C265.911 87.862 266.329 87.9537 266.681 88.137C267.033 88.3203 267.304 88.5843 267.495 88.929C267.693 89.2737 267.792 89.6843 267.792 90.161V91.778C267.792 92.2547 267.693 92.669 267.495 93.021C267.304 93.3657 267.033 93.6297 266.681 93.813C266.329 93.9963 265.911 94.088 265.427 94.088ZM265.427 93.208C265.86 93.208 266.197 93.087 266.439 92.845C266.681 92.603 266.802 92.2473 266.802 91.778V90.172C266.802 89.7027 266.681 89.347 266.439 89.105C266.197 88.863 265.86 88.742 265.427 88.742C265.002 88.742 264.664 88.863 264.415 89.105C264.173 89.347 264.052 89.7027 264.052 90.172V91.778C264.052 92.2473 264.173 92.603 264.415 92.845C264.664 93.087 265.002 93.208 265.427 93.208ZM269.735 94V87.95H270.725V89.105H270.934L270.725 89.336C270.725 88.8593 270.868 88.4927 271.154 88.236C271.44 87.972 271.836 87.84 272.342 87.84C272.95 87.84 273.434 88.027 273.794 88.401C274.153 88.775 274.333 89.2847 274.333 89.93V94H273.343V90.04C273.343 89.6073 273.225 89.2773 272.991 89.05C272.763 88.8153 272.452 88.698 272.056 88.698C271.645 88.698 271.319 88.8227 271.077 89.072C270.842 89.3213 270.725 89.6807 270.725 90.15V94H269.735ZM284.334 94V89.457H282.574V88.555H284.334V87.51C284.334 87.0333 284.484 86.6593 284.785 86.388C285.086 86.1093 285.5 85.97 286.028 85.97H287.799V86.872H286.028C285.801 86.872 285.625 86.927 285.5 87.037C285.383 87.1397 285.324 87.2973 285.324 87.51V88.555H287.799V89.457H285.324V94H284.334ZM289.731 94V87.95H290.699V89.105H290.93L290.611 89.82C290.611 89.1673 290.75 88.676 291.029 88.346C291.315 88.0087 291.736 87.84 292.294 87.84C292.932 87.84 293.438 88.0417 293.812 88.445C294.193 88.841 294.384 89.38 294.384 90.062V90.425H293.394V90.15C293.394 89.6733 293.276 89.3103 293.042 89.061C292.814 88.8043 292.488 88.676 292.063 88.676C291.645 88.676 291.315 88.8043 291.073 89.061C290.838 89.3177 290.721 89.6807 290.721 90.15V94H289.731ZM297.877 94.11C297.239 94.11 296.737 93.9487 296.37 93.626C296.004 93.296 295.82 92.8523 295.82 92.295C295.82 91.7303 296.004 91.2867 296.37 90.964C296.737 90.6413 297.232 90.48 297.855 90.48H299.725V89.875C299.725 89.501 299.612 89.215 299.384 89.017C299.164 88.8117 298.849 88.709 298.438 88.709C298.079 88.709 297.778 88.786 297.536 88.94C297.294 89.0867 297.155 89.2883 297.118 89.545H296.128C296.194 89.0243 296.44 88.61 296.865 88.302C297.291 87.994 297.822 87.84 298.46 87.84C299.157 87.84 299.707 88.0197 300.11 88.379C300.514 88.7383 300.715 89.226 300.715 89.842V94H299.747V92.845H299.582L299.747 92.68C299.747 93.12 299.575 93.4683 299.23 93.725C298.893 93.9817 298.442 94.11 297.877 94.11ZM298.119 93.329C298.589 93.329 298.974 93.2117 299.274 92.977C299.575 92.7423 299.725 92.4417 299.725 92.075V91.217H297.877C297.547 91.217 297.287 91.3087 297.096 91.492C296.906 91.6753 296.81 91.9247 296.81 92.24C296.81 92.5773 296.924 92.845 297.151 93.043C297.386 93.2337 297.709 93.329 298.119 93.329ZM302.427 94V87.95H303.296V88.676H303.494L303.34 88.94C303.34 88.6027 303.428 88.335 303.604 88.137C303.788 87.939 304.033 87.84 304.341 87.84C304.679 87.84 304.939 87.9647 305.122 88.214C305.306 88.4633 305.397 88.8153 305.397 89.27L305.1 88.676H305.562L305.353 88.94C305.353 88.6027 305.445 88.335 305.628 88.137C305.819 87.939 306.068 87.84 306.376 87.84C306.758 87.84 307.051 87.983 307.256 88.269C307.469 88.555 307.575 88.9327 307.575 89.402V94H306.662V89.391C306.662 89.1417 306.607 88.9473 306.497 88.808C306.395 88.6687 306.241 88.599 306.035 88.599C305.837 88.599 305.68 88.6687 305.562 88.808C305.452 88.94 305.397 89.1307 305.397 89.38V94H304.605V89.391C304.605 89.1343 304.547 88.94 304.429 88.808C304.319 88.6687 304.162 88.599 303.956 88.599C303.751 88.599 303.597 88.6687 303.494 88.808C303.392 88.94 303.34 89.1307 303.34 89.38V94H302.427ZM311.597 94.11C311.12 94.11 310.702 94.0147 310.343 93.824C309.991 93.6333 309.716 93.3657 309.518 93.021C309.327 92.669 309.232 92.262 309.232 91.8V90.15C309.232 89.6807 309.327 89.2737 309.518 88.929C309.716 88.5843 309.991 88.3167 310.343 88.126C310.702 87.9353 311.12 87.84 311.597 87.84C312.074 87.84 312.488 87.9353 312.84 88.126C313.199 88.3167 313.474 88.5843 313.665 88.929C313.863 89.2737 313.962 89.6807 313.962 90.15V91.217H310.2V91.8C310.2 92.2767 310.321 92.6433 310.563 92.9C310.805 93.1493 311.15 93.274 311.597 93.274C311.978 93.274 312.286 93.208 312.521 93.076C312.756 92.9367 312.899 92.7313 312.95 92.46H313.94C313.874 92.966 313.625 93.3693 313.192 93.67C312.767 93.9633 312.235 94.11 311.597 94.11ZM312.994 90.557V90.15C312.994 89.6733 312.873 89.3067 312.631 89.05C312.396 88.7933 312.052 88.665 311.597 88.665C311.15 88.665 310.805 88.7933 310.563 89.05C310.321 89.3067 310.2 89.6733 310.2 90.15V90.469H313.071L312.994 90.557ZM316.246 94L315.278 87.95H316.158L316.763 92.24C316.785 92.4013 316.807 92.5773 316.829 92.768C316.858 92.9513 316.88 93.1053 316.895 93.23C316.909 93.1053 316.931 92.9513 316.961 92.768C316.997 92.5773 317.027 92.4013 317.049 92.24L317.72 87.95H318.666L319.337 92.24C319.359 92.4013 319.384 92.5773 319.414 92.768C319.45 92.9513 319.476 93.1053 319.491 93.23C319.505 93.1053 319.527 92.9513 319.557 92.768C319.593 92.5773 319.623 92.4013 319.645 92.24L320.272 87.95H321.108L320.096 94H319.007L318.358 89.82C318.328 89.6147 318.295 89.4093 318.259 89.204C318.222 88.9987 318.196 88.8373 318.182 88.72C318.167 88.8373 318.145 88.9987 318.116 89.204C318.086 89.4093 318.053 89.6147 318.017 89.82L317.335 94H316.246ZM324.788 94.088C324.304 94.088 323.886 93.9963 323.534 93.813C323.182 93.6297 322.907 93.3657 322.709 93.021C322.519 92.669 322.423 92.2547 322.423 91.778V90.172C322.423 89.688 322.519 89.2737 322.709 88.929C322.907 88.5843 323.182 88.3203 323.534 88.137C323.886 87.9537 324.304 87.862 324.788 87.862C325.272 87.862 325.69 87.9537 326.042 88.137C326.394 88.3203 326.666 88.5843 326.856 88.929C327.054 89.2737 327.153 89.6843 327.153 90.161V91.778C327.153 92.2547 327.054 92.669 326.856 93.021C326.666 93.3657 326.394 93.6297 326.042 93.813C325.69 93.9963 325.272 94.088 324.788 94.088ZM324.788 93.208C325.221 93.208 325.558 93.087 325.8 92.845C326.042 92.603 326.163 92.2473 326.163 91.778V90.172C326.163 89.7027 326.042 89.347 325.8 89.105C325.558 88.863 325.221 88.742 324.788 88.742C324.363 88.742 324.026 88.863 323.776 89.105C323.534 89.347 323.413 89.7027 323.413 90.172V91.778C323.413 92.2473 323.534 92.603 323.776 92.845C324.026 93.087 324.363 93.208 324.788 93.208ZM329.305 94V87.95H330.273V89.105H330.504L330.185 89.82C330.185 89.1673 330.324 88.676 330.603 88.346C330.889 88.0087 331.311 87.84 331.868 87.84C332.506 87.84 333.012 88.0417 333.386 88.445C333.767 88.841 333.958 89.38 333.958 90.062V90.425H332.968V90.15C332.968 89.6733 332.851 89.3103 332.616 89.061C332.389 88.8043 332.062 88.676 331.637 88.676C331.219 88.676 330.889 88.8043 330.647 89.061C330.412 89.3177 330.295 89.6807 330.295 90.15V94H329.305ZM335.725 94V85.97H336.715V90.447H337.881L339.641 87.95H340.774L338.739 90.832L340.807 94H339.652L337.892 91.305H336.715V94H335.725Z" fill="#404040"/>
<path d="M26.7772 18.9885H56.7707L60.1826 14.5632C60.1826 14.5632 60.5529 14.8582 61.2935 15.4483C62.0341 16.0383 62.9069 16.7625 63.912 17.6207C64.9699 18.4253 65.8957 19.2031 66.6891 19.954C66.4775 20.8123 65.7899 21.2414 64.6261 21.2414H27.412L26.7772 18.9885ZM24.6348 34.8391H57.8815L61.4522 30.092C61.4522 30.092 61.8225 30.4138 62.563 31.0575C63.3036 31.6475 64.1765 32.3985 65.1815 33.3103C66.2395 34.1686 67.1652 35 67.9587 35.8046C67.7471 36.6628 67.0594 37.092 65.8957 37.092H25.2696L24.6348 34.8391ZM70.7359 17.7011L78.512 18.5862C78.4591 19.1226 78.221 19.5785 77.7978 19.954C77.3746 20.2759 76.687 20.5172 75.7348 20.6782V46.1839C75.7348 46.3985 75.5232 46.6398 75.1 46.908C74.6768 47.1762 74.1478 47.4176 73.513 47.6322C72.9312 47.7931 72.3228 47.8736 71.688 47.8736H70.7359V17.7011ZM50.5022 18.9885H55.5011V56C55.5011 56.2146 55.1043 56.5364 54.3109 56.9655C53.5703 57.341 52.5388 57.5287 51.2163 57.5287H50.5022V18.9885ZM87.9544 14L95.7304 14.8046C95.6775 15.3946 95.4395 15.8774 95.0163 16.2529C94.5931 16.5747 93.9054 16.8161 92.9533 16.977V51.092C92.9533 52.4866 92.7946 53.7203 92.4772 54.7931C92.1598 55.8123 91.4721 56.6437 90.4141 57.2874C89.4091 57.8774 87.7957 58.3065 85.5739 58.5747C85.4681 57.7165 85.3094 56.9923 85.0978 56.4023C84.8862 55.7586 84.5688 55.2222 84.1456 54.7931C83.6167 54.364 82.9025 54.0153 82.0033 53.7471C81.1569 53.4253 80.0196 53.1571 78.5913 52.9425V51.6552C78.5913 51.6552 78.9087 51.682 79.5435 51.7356C80.2312 51.7893 81.0511 51.8429 82.0033 51.8966C82.9554 51.9502 83.8283 52.0038 84.6217 52.0575C85.4681 52.1111 86.05 52.1379 86.3674 52.1379C87.0022 52.1379 87.4254 52.0307 87.637 51.8161C87.8486 51.6015 87.9544 51.2261 87.9544 50.6897V14ZM58.0402 54.954L66.213 55.8391C66.1601 56.3755 65.8956 56.8314 65.4196 57.2069C64.9964 57.5824 64.2822 57.8506 63.2772 58.0115V84H58.0402V54.954ZM32.2522 65.6552H79.3054L83.1141 60.8276C83.1141 60.8276 83.3522 61.0153 83.8283 61.3908C84.3043 61.7663 84.8862 62.249 85.5739 62.8391C86.3145 63.4291 87.0815 64.0728 87.875 64.7701C88.7214 65.4674 89.4884 66.1379 90.1761 66.7816C89.9645 67.5862 89.2504 67.9885 88.0337 67.9885H32.887L32.2522 65.6552ZM24.5554 82.954H85.7326L89.7 77.8851C89.7 77.8851 89.938 78.0728 90.4141 78.4483C90.8902 78.8238 91.4985 79.3333 92.2391 79.977C93.0326 80.567 93.8525 81.2107 94.6989 81.908C95.5453 82.6054 96.3123 83.2759 97 83.9195C96.7884 84.7778 96.0478 85.2069 94.7783 85.2069H25.2696L24.5554 82.954ZM35.7435 18.9885H40.663V30.6552C40.663 32.908 40.5043 35.295 40.187 37.8161C39.8696 40.3372 39.1819 42.8582 38.1239 45.3793C37.0659 47.8467 35.479 50.2337 33.363 52.5402C31.3 54.7931 28.4964 56.8314 24.9522 58.6552L24 57.6092C27.4913 54.9272 30.0569 52.0843 31.6967 49.0805C33.3366 46.0766 34.421 43.0192 34.95 39.908C35.479 36.7433 35.7435 33.6858 35.7435 30.7356V18.9885Z" fill="#D4A574"/>
<path d="M38.0785 105L41.8342 94.9157H42.8393L39.0835 105H38.0785Z" fill="#404040"/>
<path d="M44.8982 95.6667V98.4988H44.0519V95.6667H44.8982Z" fill="#404040"/>
<path d="M46.3281 103.82V95.9885H47.2803V100.355H48.4018L50.0945 97.9195H51.1842L49.227 100.73L51.216 103.82H50.1051L48.4123 101.192H47.2803V103.82H46.3281Z" fill="#404040"/>
<path d="M54.5762 103.927C54.1107 103.927 53.7016 103.816 53.3489 103.595C53.0033 103.373 52.7318 103.044 52.5343 102.608C52.3439 102.164 52.2487 101.614 52.2487 100.956C52.2487 99.9686 52.4602 99.2248 52.8834 98.7241C53.3137 98.2163 53.8815 97.9625 54.5868 97.9625C55.0241 97.9625 55.3802 98.0447 55.6553 98.2092C55.9374 98.3737 56.1667 98.5739 56.343 98.81H56.3853L56.5334 98.0697H57.274V102.554C57.274 102.776 57.3163 102.933 57.401 103.026C57.4856 103.112 57.5879 103.155 57.7078 103.155C57.7642 103.155 57.8242 103.148 57.8876 103.133C57.9511 103.119 57.997 103.108 58.0252 103.101V103.788C57.9899 103.809 57.9405 103.831 57.8771 103.852C57.8136 103.874 57.743 103.891 57.6655 103.906C57.5879 103.92 57.5103 103.927 57.4327 103.927C57.1647 103.927 56.9425 103.863 56.7662 103.734C56.5899 103.605 56.4629 103.376 56.3853 103.048H56.343C56.1737 103.291 55.948 103.498 55.6659 103.67C55.3838 103.841 55.0205 103.927 54.5762 103.927ZM54.7243 103.144C55.1263 103.144 55.4437 103.073 55.6765 102.93C55.9163 102.779 56.0891 102.554 56.1949 102.254C56.3007 101.953 56.3536 101.581 56.3536 101.138V100.966C56.3536 100.251 56.2372 99.704 56.0044 99.3249C55.7717 98.9387 55.3415 98.7456 54.7137 98.7456C54.2129 98.7456 53.8356 98.9494 53.5817 99.3571C53.3348 99.7576 53.2114 100.298 53.2114 100.977C53.2114 101.664 53.3348 102.196 53.5817 102.575C53.8356 102.955 54.2165 103.144 54.7243 103.144Z" fill="#404040"/>
<path d="M59.8791 99.5609L58.9375 98.0697H60.8207L59.8791 99.5609ZM58.9375 103.82L59.8791 102.329L60.8207 103.82H58.9375Z" fill="#404040"/>
<path d="M65.3939 103.82C64.8932 103.82 64.5017 103.684 64.2196 103.412C63.9445 103.14 63.807 102.758 63.807 102.264V98.7992H62.1671V97.9195H63.807V96.2567H64.7592V97.9195H67.0867V98.7992H64.7592V102.264C64.7592 102.715 64.9708 102.94 65.3939 102.94H66.9809V103.82H65.3939Z" fill="#404040"/>
<path d="M70.8384 103.927C70.3729 103.927 69.9638 103.816 69.6111 103.595C69.2655 103.373 68.994 103.044 68.7965 102.608C68.606 102.164 68.5108 101.614 68.5108 100.956C68.5108 99.9686 68.7224 99.2248 69.1456 98.7241C69.5758 98.2163 70.1436 97.9625 70.8489 97.9625C71.2862 97.9625 71.6424 98.0447 71.9175 98.2092C72.1996 98.3737 72.4288 98.5739 72.6052 98.81H72.6475L72.7956 98.0697H73.5362V102.554C73.5362 102.776 73.5785 102.933 73.6631 103.026C73.7478 103.112 73.85 103.155 73.97 103.155C74.0264 103.155 74.0863 103.148 74.1498 103.133C74.2133 103.119 74.2591 103.108 74.2873 103.101V103.788C74.2521 103.809 74.2027 103.831 74.1392 103.852C74.0757 103.874 74.0052 103.891 73.9276 103.906C73.85 103.92 73.7725 103.927 73.6949 103.927C73.4269 103.927 73.2047 103.863 73.0284 103.734C72.852 103.605 72.7251 103.376 72.6475 103.048H72.6052C72.4359 103.291 72.2102 103.498 71.9281 103.67C71.6459 103.841 71.2827 103.927 70.8384 103.927ZM70.9865 103.144C71.3885 103.144 71.7059 103.073 71.9386 102.93C72.1785 102.779 72.3513 102.554 72.4571 102.254C72.5629 101.953 72.6157 101.581 72.6157 101.138V100.966C72.6157 100.251 72.4994 99.704 72.2666 99.3249C72.0339 98.9387 71.6036 98.7456 70.9759 98.7456C70.4751 98.7456 70.0978 98.9494 69.8439 99.3571C69.597 99.7576 69.4736 100.298 69.4736 100.977C69.4736 101.664 69.597 102.196 69.8439 102.575C70.0978 102.955 70.4786 103.144 70.9865 103.144Z" fill="#404040"/>
<path d="M76.1413 99.5609L75.1997 98.0697H77.0829L76.1413 99.5609ZM75.1997 103.82L76.1413 102.329L77.0829 103.82H75.1997Z" fill="#404040"/>
<path d="M78.6409 105L82.3967 94.9157H83.4018L79.646 105H78.6409Z" fill="#404040"/>
</g>
<defs>
<clipPath id="clip0_16_53">
<rect width="400" height="120" fill="white"/>
</clipPath>
</defs>
</svg>
